<svg height="496pt" viewBox="0 0 496 496" width="496pt" xmlns="http://www.w3.org/2000/svg"><path d="m56 448h16v16h-16zm0 0"/><path d="m88 448h16v16h-16zm0 0"/><path d="m120 448h16v16h-16zm0 0"/><path d="m496 414.550781v-45.109375l-20.191406-4.050781c-1.519532-4.78125-3.441406-9.414063-5.738282-13.847656l11.425782-17.144531-31.894532-31.894532-17.136718 11.433594c-4.441406-2.304688-9.074219-4.226562-13.855469-5.746094l-4.050781-20.191406h-38.558594v-97.136719c13.761719-3.574219 24-15.992187 24-30.863281v-25.601562l-40-96v-38.398438h-320v38.398438l-40 96v25.601562c0 14.871094 10.238281 27.289062 24 30.863281v305.136719h390.558594l4.042968-20.191406c4.78125-1.511719 9.414063-3.441406 13.855469-5.746094l17.136719 11.433594 31.894531-31.894532-11.425781-17.144531c2.304688-4.441406 4.21875-9.074219 5.738281-13.847656zm-182.0625-63.007812c-1.738281 3.34375-3.175781 6.824219-4.464844 10.367187-4.242187-11.535156-13.601562-20.703125-25.976562-24.421875l-51.496094-15.441406v-14.367187c9.792969-8.792969 16-21.503907 16-35.679688v-24c0-26.472656-21.527344-48-48-48s-48 21.527344-48 48v24c0 14.167969 6.207031 26.878906 16 35.679688v14.367187l-51.496094 15.449219c-17.046875 5.113281-28.503906 20.511718-28.503906 38.320312v40.183594h-16v-225.136719c2.574219.671875 5.222656 1.136719 8 1.136719 9.601562 0 18.128906-4.335938 24-11.054688 5.871094 6.71875 14.398438 11.054688 24 11.054688s18.128906-4.335938 24-11.054688c5.871094 6.71875 14.398438 11.054688 24 11.054688s18.128906-4.335938 24-11.054688c5.871094 6.71875 14.398438 11.054688 24 11.054688s18.128906-4.335938 24-11.054688c5.871094 6.71875 14.398438 11.054688 24 11.054688s18.128906-4.335938 24-11.054688c5.871094 6.71875 14.398438 11.054688 24 11.054688 2.777344 0 5.425781-.464844 8-1.136719v118.058594l-25.488281 25.484375zm-65.9375 24.457031v40h-96v-40h-16v40h-32v-40.183594c0-10.679687 6.871094-19.921875 17.105469-22.992187l52.621093-15.785157 26.273438 26.273438 26.28125-26.28125 52.613281 15.785156c7.65625 2.296875 13.425781 8.046875 15.847657 15.273438l-6.742188 1.359375v45.109375l7.214844 1.441406h-31.214844v-40zm-48-72c-17.648438 0-32-14.351562-32-32v-24c0-17.648438 14.351562-32 32-32s32 14.351562 32 32v24c0 17.648438-14.351562 32-32 32zm0 16c5.617188 0 10.984375-1.023438 16-2.800781v7.488281l-16 16-16-16v-7.488281c5.015625 1.777343 10.382812 2.800781 16 2.800781zm-123.097656-272-26.671875 80h-30.230469l33.335938-80zm269.761718 0 33.335938 80h-30.230469l-26.671875-80zm-10.664062 112c0 8.824219-7.175781 16-16 16s-16-7.175781-16-16v-16h32zm-224-16h32v16c0 8.824219-7.175781 16-16 16s-16-7.175781-16-16zm48 0h32v16c0 8.824219-7.175781 16-16 16s-16-7.175781-16-16zm48 0h32v16c0 8.824219-7.175781 16-16 16s-16-7.175781-16-16zm48 0h32v16c0 8.824219-7.175781 16-16 16s-16-7.175781-16-16zm76.902344-16h-30.878906l-19.800782-80h24.015625zm-67.148438-80 20 80h-30.394531l-6.664063-80zm-33.113281 0 6.6875 80h-31.328125v-80zm-40.640625 80h-31.304688l6.664063-80h24.640625zm-47.335938 0h-30.417968l20-80h17.066406zm-46.910156 0h-30.65625l26.664063-80h23.992187zm-1.753906 16v16c0 8.824219-7.175781 16-16 16s-16-7.175781-16-16v-16zm248 36.945312c4.167969 4.773438 9.679688 8.277344 16 9.917969v119.304688c-2.878906 1.128906-5.710938 2.351562-8.457031 3.769531l-7.542969-5.035156zm24-4.945312c-8.824219 0-16-7.175781-16-16v-16h32v16c0 8.824219-7.175781 16-16 16zm-24-160v16h-288v-16zm-328 144v-16h32v16c0 8.824219-7.175781 16-16 16s-16-7.175781-16-16zm24 30.863281c6.320312-1.640625 11.832031-5.144531 16-9.917969v251.054688h257.71875c.074219.152344.136719.304688.210938.457031l-11.425782 17.144531 30.417969 30.398438h-292.921875zm296.648438 289.136719 14.894531-9.9375c4.441406 2.304688 9.074219 4.226562 13.855469 5.746094l.839843 4.191406zm126.296874-75.152344-1.242187 4.886719c-1.703125 6.707031-4.351563 13.097656-7.863281 18.992187l-2.582032 4.328126 9.652344 14.488281-13.351562 13.351562-14.480469-9.648437-4.335937 2.578125c-5.902344 3.519531-12.292969 6.167969-19 7.871093l-4.878907 1.242188-3.421875 17.0625h-18.882812l-3.414063-17.054688-4.878906-1.242187c-6.707031-1.710937-13.097656-4.351563-19-7.871094l-4.335937-2.574219-14.480469 9.644532-13.351563-13.351563 9.65625-14.488281-2.585937-4.328125c-3.511719-5.894531-6.160157-12.285156-7.863281-18.992187l-1.242188-4.886719-17.0625-3.40625v-18.890625l17.054688-3.40625 1.242187-4.886719c1.703125-6.707031 4.351563-13.097656 7.863281-18.992187l2.582032-4.328126-9.652344-14.488281 13.351562-13.351562 14.480469 9.648437 4.335937-2.578125c5.902344-3.519531 12.292969-6.167969 19-7.871093l4.878907-1.242188 3.421875-17.0625h18.882812l3.414063 17.054688 4.878906 1.242187c6.707031 1.710937 13.097656 4.351563 19 7.871094l4.335937 2.574219 14.480469-9.644532 13.351563 13.351563-9.65625 14.488281 2.585937 4.328125c3.511719 5.894531 6.160157 12.285156 7.863281 18.992187l1.242188 4.886719 17.0625 3.40625v18.890625zm0 0"/><path d="m392 336c-11.664062 0-22.878906 3.59375-32.425781 10.390625l9.28125 13.035156c6.824219-4.859375 14.824219-7.425781 23.144531-7.425781 22.054688 0 40 17.945312 40 40 0 8.320312-2.566406 16.320312-7.425781 23.144531l13.035156 9.28125c6.796875-9.554687 10.390625-20.761719 10.390625-32.425781 0-30.871094-25.121094-56-56-56zm0 0"/><path d="m392 432c-22.054688 0-40-17.945312-40-40 0-8.320312 2.566406-16.320312 7.425781-23.144531l-13.035156-9.28125c-6.796875 9.554687-10.390625 20.761719-10.390625 32.425781 0 30.871094 25.121094 56 56 56 11.664062 0 22.878906-3.59375 32.425781-10.390625l-9.28125-13.035156c-6.824219 4.859375-14.824219 7.425781-23.144531 7.425781zm0 0"/></svg>